<svg xmlns="http://www.w3.org/2000/svg" xmlns:xlink="http://www.w3.org/1999/xlink" width="1000" zoomAndPan="magnify" viewBox="0 0 750 299.999988" height="400" preserveAspectRatio="xMidYMid meet" version="1.0"><defs><g/></defs><rect x="-75" width="900" fill="#ffffff" y="-29.999999" height="359.999986" fill-opacity="1"/><rect x="-75" width="900" fill="#ffffff" y="-29.999999" height="359.999986" fill-opacity="1"/><path fill="#00d166" d="M 85.539062 207.480469 L 132.039062 75.421875 L 109.71875 81 L 146.917969 118.199219 L 165.519531 99.601562 L 128.320312 60.539062 L 106 66.121094 L 59.5 196.320312 Z M 85.539062 207.480469 " fill-opacity="1" fill-rule="nonzero"/><path fill="#9945ff" d="M 208.300781 66.121094 L 161.800781 198.179688 L 184.121094 192.601562 L 146.917969 155.398438 L 128.320312 175.859375 L 165.519531 213.058594 L 187.839844 207.480469 L 234.339844 77.28125 Z M 208.300781 66.121094 " fill-opacity="1" fill-rule="nonzero"/><g fill="#0d1117" fill-opacity="1"><g transform="translate(273.547522, 174.869371)"><g><path d="M 13.953125 -17.25 L 13.953125 -27.78125 C 15.410156 -29.851562 16.851562 -31.820312 18.28125 -33.6875 C 19.71875 -35.5625 21.203125 -37.414062 22.734375 -39.25 C 24.265625 -41.09375 25.890625 -42.976562 27.609375 -44.90625 L 45.953125 -65.203125 L 58.59375 -65.203125 L 30.859375 -34.703125 L 30.203125 -34.828125 Z M 6.921875 0 L 6.921875 -65.203125 L 16.890625 -65.203125 L 16.890625 -44.328125 L 16.765625 -29.453125 L 16.890625 -24.59375 L 16.890625 0 Z M 47.09375 0 L 24.859375 -31.984375 L 31.078125 -39.609375 L 58.8125 0 Z M 47.09375 0 "/></g></g></g><g fill="#0d1117" fill-opacity="1"><g transform="translate(330.919771, 174.869371)"><g><path d="M 26.609375 1 C 22.054688 1 18.078125 -0.0390625 14.671875 -2.125 C 11.273438 -4.207031 8.632812 -7.125 6.75 -10.875 C 4.875 -14.625 3.9375 -18.976562 3.9375 -23.9375 C 3.9375 -28.957031 4.875 -33.347656 6.75 -37.109375 C 8.632812 -40.867188 11.273438 -43.789062 14.671875 -45.875 C 18.078125 -47.96875 22.054688 -49.015625 26.609375 -49.015625 C 31.191406 -49.015625 35.179688 -47.96875 38.578125 -45.875 C 41.972656 -43.789062 44.609375 -40.867188 46.484375 -37.109375 C 48.367188 -33.347656 49.3125 -28.957031 49.3125 -23.9375 C 49.3125 -18.976562 48.367188 -14.625 46.484375 -10.875 C 44.609375 -7.125 41.972656 -4.207031 38.578125 -2.125 C 35.179688 -0.0390625 31.191406 1 26.609375 1 Z M 26.609375 -7.09375 C 29.492188 -7.09375 31.90625 -7.84375 33.84375 -9.34375 C 35.789062 -10.84375 37.242188 -12.867188 38.203125 -15.421875 C 39.171875 -17.972656 39.65625 -20.8125 39.65625 -23.9375 C 39.65625 -27.113281 39.171875 -29.976562 38.203125 -32.53125 C 37.242188 -35.082031 35.789062 -37.117188 33.84375 -38.640625 C 31.90625 -40.160156 29.492188 -40.921875 26.609375 -40.921875 C 23.722656 -40.921875 21.320312 -40.160156 19.40625 -38.640625 C 17.5 -37.117188 16.0625 -35.082031 15.09375 -32.53125 C 14.132812 -29.976562 13.65625 -27.113281 13.65625 -23.9375 C 13.65625 -20.8125 14.132812 -17.972656 15.09375 -15.421875 C 16.0625 -12.867188 17.5 -10.84375 19.40625 -9.34375 C 21.320312 -7.84375 23.722656 -7.09375 26.609375 -7.09375 Z M 26.609375 -7.09375 "/></g></g><g transform="translate(384.178372, 174.869371)"><g><path d="M 15.75 -28.453125 L 15.75 0 L 6.171875 0 L 6.171875 -48.3125 L 15.359375 -48.3125 L 15.40625 -36.453125 L 14.171875 -36.453125 C 15.609375 -40.773438 17.679688 -43.945312 20.390625 -45.96875 C 23.109375 -48 26.390625 -49.015625 30.234375 -49.015625 C 33.535156 -49.015625 36.429688 -48.3125 38.921875 -46.90625 C 41.421875 -45.507812 43.367188 -43.445312 44.765625 -40.71875 C 46.171875 -37.988281 46.875 -34.613281 46.875 -30.59375 L 46.875 0 L 37.328125 0 L 37.328125 -29.40625 C 37.328125 -32.96875 36.414062 -35.734375 34.59375 -37.703125 C 32.769531 -39.671875 30.269531 -40.65625 27.09375 -40.65625 C 24.925781 -40.65625 22.984375 -40.1875 21.265625 -39.25 C 19.546875 -38.320312 18.195312 -36.953125 17.21875 -35.140625 C 16.238281 -33.328125 15.75 -31.097656 15.75 -28.453125 Z M 15.75 -28.453125 "/></g></g><g transform="translate(437.261925, 174.869371)"><g><path d="M 27 1 C 22.21875 1 18.101562 -0.03125 14.65625 -2.09375 C 11.21875 -4.164062 8.570312 -7.066406 6.71875 -10.796875 C 4.863281 -14.535156 3.9375 -18.898438 3.9375 -23.890625 C 3.9375 -28.828125 4.851562 -33.179688 6.6875 -36.953125 C 8.53125 -40.734375 11.128906 -43.6875 14.484375 -45.8125 C 17.835938 -47.945312 21.75 -49.015625 26.21875 -49.015625 C 29.132812 -49.015625 31.894531 -48.53125 34.5 -47.5625 C 37.113281 -46.601562 39.429688 -45.125 41.453125 -43.125 C 43.484375 -41.125 45.082031 -38.582031 46.25 -35.5 C 47.414062 -32.425781 48 -28.773438 48 -24.546875 L 48 -21.3125 L 9.015625 -21.3125 L 9.015625 -28.484375 L 43.0625 -28.484375 L 38.6875 -26.171875 C 38.6875 -29.117188 38.210938 -31.722656 37.265625 -33.984375 C 36.316406 -36.242188 34.914062 -38 33.0625 -39.25 C 31.207031 -40.507812 28.9375 -41.140625 26.25 -41.140625 C 23.570312 -41.140625 21.273438 -40.492188 19.359375 -39.203125 C 17.453125 -37.921875 15.988281 -36.210938 14.96875 -34.078125 C 13.945312 -31.953125 13.4375 -29.578125 13.4375 -26.953125 L 13.4375 -22.28125 C 13.4375 -19.039062 14 -16.265625 15.125 -13.953125 C 16.25 -11.648438 17.835938 -9.894531 19.890625 -8.6875 C 21.941406 -7.476562 24.34375 -6.875 27.09375 -6.875 C 28.925781 -6.875 30.585938 -7.140625 32.078125 -7.671875 C 33.566406 -8.210938 34.832031 -9.007812 35.875 -10.0625 C 36.925781 -11.113281 37.71875 -12.398438 38.25 -13.921875 L 47.265625 -12.25 C 46.535156 -9.625 45.234375 -7.3125 43.359375 -5.3125 C 41.492188 -3.3125 39.164062 -1.757812 36.375 -0.65625 C 33.59375 0.445312 30.46875 1 27 1 Z M 27 1 "/></g></g><g transform="translate(489.032612, 174.869371)"><g><path d="M 15.015625 -16.28125 L 15.015625 -27.875 L 16.453125 -27.875 L 35.84375 -48.3125 L 47.390625 -48.3125 L 25.296875 -24.9375 L 23.71875 -24.9375 Z M 6.171875 0 L 6.171875 -65.203125 L 15.75 -65.203125 L 15.75 0 Z M 36.9375 0 L 19.5625 -22.84375 L 26.125 -29.546875 L 48.703125 0 Z M 36.9375 0 "/></g></g></g><g fill="#9945ff" fill-opacity="1"><g transform="translate(538.402969, 174.869371)"><g><path d="M 7.578125 0 L 7.578125 -65.203125 L 30.109375 -65.203125 C 35.066406 -65.203125 39.191406 -64.304688 42.484375 -62.515625 C 45.785156 -60.722656 48.253906 -58.28125 49.890625 -55.1875 C 51.523438 -52.09375 52.34375 -48.59375 52.34375 -44.6875 C 52.34375 -40.769531 51.515625 -37.25 49.859375 -34.125 C 48.210938 -31.007812 45.738281 -28.546875 42.4375 -26.734375 C 39.144531 -24.929688 35.019531 -24.03125 30.0625 -24.03125 L 13.5625 -24.03125 L 13.5625 -31.296875 L 29.796875 -31.296875 C 33.148438 -31.296875 35.882812 -31.863281 38 -33 C 40.125 -34.132812 41.679688 -35.710938 42.671875 -37.734375 C 43.660156 -39.765625 44.15625 -42.082031 44.15625 -44.6875 C 44.15625 -47.28125 43.660156 -49.578125 42.671875 -51.578125 C 41.679688 -53.578125 40.117188 -55.144531 37.984375 -56.28125 C 35.859375 -57.414062 33.101562 -57.984375 29.71875 -57.984375 L 15.796875 -57.984375 L 15.796875 0 Z M 7.578125 0 "/></g></g></g><g fill="#9945ff" fill-opacity="1"><g transform="translate(594.6374, 174.869371)"><g><path d="M 20.390625 1.046875 C 17.296875 1.046875 14.5 0.476562 12 -0.65625 C 9.507812 -1.789062 7.523438 -3.46875 6.046875 -5.6875 C 4.578125 -7.90625 3.84375 -10.601562 3.84375 -13.78125 C 3.84375 -16.550781 4.390625 -18.796875 5.484375 -20.515625 C 6.585938 -22.242188 8.050781 -23.609375 9.875 -24.609375 C 11.695312 -25.617188 13.722656 -26.367188 15.953125 -26.859375 C 18.179688 -27.359375 20.4375 -27.753906 22.71875 -28.046875 C 25.65625 -28.429688 28.019531 -28.722656 29.8125 -28.921875 C 31.613281 -29.128906 32.941406 -29.472656 33.796875 -29.953125 C 34.660156 -30.429688 35.09375 -31.269531 35.09375 -32.46875 L 35.09375 -32.78125 C 35.09375 -34.726562 34.707031 -36.398438 33.9375 -37.796875 C 33.164062 -39.203125 32.019531 -40.273438 30.5 -41.015625 C 28.988281 -41.765625 27.109375 -42.140625 24.859375 -42.140625 C 22.554688 -42.140625 20.578125 -41.78125 18.921875 -41.0625 C 17.273438 -40.351562 15.929688 -39.4375 14.890625 -38.3125 C 13.859375 -37.1875 13.140625 -36 12.734375 -34.75 L 5.15625 -36.71875 C 6.15625 -39.664062 7.660156 -42.035156 9.671875 -43.828125 C 11.679688 -45.617188 13.992188 -46.929688 16.609375 -47.765625 C 19.222656 -48.597656 21.914062 -49.015625 24.6875 -49.015625 C 26.550781 -49.015625 28.53125 -48.769531 30.625 -48.28125 C 32.726562 -47.800781 34.707031 -46.960938 36.5625 -45.765625 C 38.414062 -44.578125 39.925781 -42.878906 41.09375 -40.671875 C 42.257812 -38.472656 42.84375 -35.640625 42.84375 -32.171875 L 42.84375 0 L 35.1875 0 L 35.1875 -6.65625 L 34.75 -6.65625 C 34.195312 -5.507812 33.320312 -4.335938 32.125 -3.140625 C 30.925781 -1.953125 29.363281 -0.957031 27.4375 -0.15625 C 25.507812 0.644531 23.160156 1.046875 20.390625 1.046875 Z M 21.65625 -5.859375 C 24.601562 -5.859375 27.066406 -6.421875 29.046875 -7.546875 C 31.035156 -8.671875 32.539062 -10.132812 33.5625 -11.9375 C 34.582031 -13.75 35.09375 -15.648438 35.09375 -17.640625 L 35.09375 -24.203125 C 34.769531 -23.847656 34.101562 -23.523438 33.09375 -23.234375 C 32.09375 -22.941406 30.925781 -22.675781 29.59375 -22.4375 C 28.269531 -22.207031 26.957031 -22.015625 25.65625 -21.859375 C 24.363281 -21.703125 23.265625 -21.5625 22.359375 -21.4375 C 20.492188 -21.207031 18.742188 -20.804688 17.109375 -20.234375 C 15.472656 -19.671875 14.160156 -18.847656 13.171875 -17.765625 C 12.179688 -16.679688 11.6875 -15.222656 11.6875 -13.390625 C 11.6875 -11.753906 12.113281 -10.375 12.96875 -9.25 C 13.832031 -8.132812 15.007812 -7.289062 16.5 -6.71875 C 17.988281 -6.144531 19.707031 -5.859375 21.65625 -5.859375 Z M 21.65625 -5.859375 "/></g></g></g><g fill="#9945ff" fill-opacity="1"><g transform="translate(642.600776, 174.869371)"><g><path d="M 6.078125 17.859375 L 7.609375 11.078125 L 9.28125 11.25 C 10.738281 11.570312 12.0625 11.613281 13.25 11.375 C 14.445312 11.144531 15.519531 10.503906 16.46875 9.453125 C 17.425781 8.398438 18.269531 6.820312 19 4.71875 L 20.65625 0.125 L 2.140625 -48.3125 L 10.640625 -48.3125 L 20.96875 -19.828125 C 22.007812 -16.992188 22.910156 -14.171875 23.671875 -11.359375 C 24.429688 -8.546875 25.21875 -5.8125 26.03125 -3.15625 L 23.375 -3.15625 C 24.1875 -5.8125 24.976562 -8.546875 25.75 -11.359375 C 26.519531 -14.171875 27.421875 -16.992188 28.453125 -19.828125 L 38.8125 -48.3125 L 47.21875 -48.3125 L 25.78125 7.578125 C 24.84375 10.054688 23.695312 12.109375 22.34375 13.734375 C 20.988281 15.367188 19.410156 16.582031 17.609375 17.375 C 15.816406 18.164062 13.796875 18.5625 11.546875 18.5625 C 10.296875 18.5625 9.1875 18.476562 8.21875 18.3125 C 7.257812 18.15625 6.546875 18.003906 6.078125 17.859375 Z M 6.078125 17.859375 "/></g></g></g><g fill="#0d1117" fill-opacity="1"><g transform="translate(257.574926, 264.113827)"><g><path d="M 2 0 L 2 -17.203125 L 7.953125 -17.203125 C 9.253906 -17.203125 10.335938 -16.96875 11.203125 -16.5 C 12.078125 -16.03125 12.726562 -15.382812 13.15625 -14.5625 C 13.59375 -13.75 13.8125 -12.828125 13.8125 -11.796875 C 13.8125 -10.765625 13.59375 -9.835938 13.15625 -9.015625 C 12.726562 -8.191406 12.078125 -7.539062 11.203125 -7.0625 C 10.335938 -6.582031 9.25 -6.34375 7.9375 -6.34375 L 3.578125 -6.34375 L 3.578125 -8.265625 L 7.859375 -8.265625 C 8.742188 -8.265625 9.46875 -8.410156 10.03125 -8.703125 C 10.59375 -9.003906 11.003906 -9.421875 11.265625 -9.953125 C 11.523438 -10.492188 11.65625 -11.109375 11.65625 -11.796875 C 11.65625 -12.484375 11.523438 -13.085938 11.265625 -13.609375 C 11.003906 -14.140625 10.59375 -14.554688 10.03125 -14.859375 C 9.46875 -15.160156 8.738281 -15.3125 7.84375 -15.3125 L 4.171875 -15.3125 L 4.171875 0 Z M 2 0 "/></g></g></g><g fill="#0d1117" fill-opacity="1"><g transform="translate(272.420269, 264.113827)"><g><path d="M 5.375 0.28125 C 4.5625 0.28125 3.828125 0.128906 3.171875 -0.171875 C 2.515625 -0.472656 1.988281 -0.914062 1.59375 -1.5 C 1.207031 -2.082031 1.015625 -2.796875 1.015625 -3.640625 C 1.015625 -4.367188 1.15625 -4.957031 1.4375 -5.40625 C 1.726562 -5.863281 2.113281 -6.222656 2.59375 -6.484375 C 3.082031 -6.753906 3.617188 -6.953125 4.203125 -7.078125 C 4.796875 -7.210938 5.394531 -7.320312 6 -7.40625 C 6.769531 -7.5 7.390625 -7.570312 7.859375 -7.625 C 8.335938 -7.6875 8.691406 -7.78125 8.921875 -7.90625 C 9.148438 -8.03125 9.265625 -8.253906 9.265625 -8.578125 L 9.265625 -8.65625 C 9.265625 -9.164062 9.160156 -9.601562 8.953125 -9.96875 C 8.753906 -10.34375 8.453125 -10.628906 8.046875 -10.828125 C 7.648438 -11.023438 7.15625 -11.125 6.5625 -11.125 C 5.945312 -11.125 5.421875 -11.03125 4.984375 -10.84375 C 4.554688 -10.65625 4.203125 -10.410156 3.921875 -10.109375 C 3.648438 -9.816406 3.460938 -9.503906 3.359375 -9.171875 L 1.359375 -9.6875 C 1.617188 -10.46875 2.015625 -11.09375 2.546875 -11.5625 C 3.078125 -12.039062 3.6875 -12.390625 4.375 -12.609375 C 5.070312 -12.828125 5.785156 -12.9375 6.515625 -12.9375 C 7.003906 -12.9375 7.523438 -12.875 8.078125 -12.75 C 8.640625 -12.625 9.164062 -12.398438 9.65625 -12.078125 C 10.144531 -11.765625 10.539062 -11.316406 10.84375 -10.734375 C 11.15625 -10.148438 11.3125 -9.398438 11.3125 -8.484375 L 11.3125 0 L 9.28125 0 L 9.28125 -1.75 L 9.171875 -1.75 C 9.023438 -1.457031 8.789062 -1.148438 8.46875 -0.828125 C 8.15625 -0.515625 7.742188 -0.25 7.234375 -0.03125 C 6.734375 0.175781 6.113281 0.28125 5.375 0.28125 Z M 5.71875 -1.546875 C 6.5 -1.546875 7.148438 -1.691406 7.671875 -1.984375 C 8.191406 -2.285156 8.585938 -2.675781 8.859375 -3.15625 C 9.128906 -3.632812 9.265625 -4.132812 9.265625 -4.65625 L 9.265625 -6.390625 C 9.179688 -6.296875 9.003906 -6.207031 8.734375 -6.125 C 8.472656 -6.050781 8.164062 -5.984375 7.8125 -5.921875 C 7.457031 -5.859375 7.109375 -5.804688 6.765625 -5.765625 C 6.429688 -5.722656 6.144531 -5.6875 5.90625 -5.65625 C 5.40625 -5.59375 4.941406 -5.484375 4.515625 -5.328125 C 4.085938 -5.179688 3.738281 -4.96875 3.46875 -4.6875 C 3.207031 -4.40625 3.078125 -4.019531 3.078125 -3.53125 C 3.078125 -3.101562 3.191406 -2.738281 3.421875 -2.4375 C 3.648438 -2.144531 3.957031 -1.921875 4.34375 -1.765625 C 4.738281 -1.617188 5.195312 -1.546875 5.71875 -1.546875 Z M 5.71875 -1.546875 "/></g></g></g><g fill="#0d1117" fill-opacity="1"><g transform="translate(285.082115, 264.113827)"><g><path d="M 1.609375 4.71875 L 2.015625 2.921875 L 2.453125 2.96875 C 2.835938 3.050781 3.1875 3.0625 3.5 3 C 3.8125 2.9375 4.09375 2.765625 4.34375 2.484375 C 4.59375 2.210938 4.816406 1.800781 5.015625 1.25 L 5.453125 0.03125 L 0.5625 -12.75 L 2.8125 -12.75 L 5.53125 -5.234375 C 5.8125 -4.484375 6.050781 -3.734375 6.25 -2.984375 C 6.445312 -2.242188 6.65625 -1.523438 6.875 -0.828125 L 6.171875 -0.828125 C 6.378906 -1.523438 6.585938 -2.242188 6.796875 -2.984375 C 7.003906 -3.734375 7.242188 -4.484375 7.515625 -5.234375 L 10.25 -12.75 L 12.46875 -12.75 L 6.796875 2 C 6.554688 2.65625 6.253906 3.195312 5.890625 3.625 C 5.535156 4.0625 5.117188 4.378906 4.640625 4.578125 C 4.171875 4.785156 3.640625 4.890625 3.046875 4.890625 C 2.710938 4.890625 2.421875 4.867188 2.171875 4.828125 C 1.921875 4.785156 1.734375 4.75 1.609375 4.71875 Z M 1.609375 4.71875 "/></g></g></g><g fill="#0d1117" fill-opacity="1"><g transform="translate(298.113684, 264.113827)"><g/></g></g><g fill="#00a14f" fill-opacity="1"><g transform="translate(304.613984, 264.113827)"><g><path d="M 8.265625 -5.375 L 10.546875 -5.375 L 12.46875 -2.859375 L 12.953125 -2.1875 L 15.8125 1.609375 L 13.53125 1.609375 L 11.65625 -0.90625 L 11.171875 -1.546875 Z M 9.015625 0.25 C 7.535156 0.25 6.210938 -0.109375 5.046875 -0.828125 C 3.890625 -1.554688 2.976562 -2.582031 2.3125 -3.90625 C 1.65625 -5.238281 1.328125 -6.800781 1.328125 -8.59375 C 1.328125 -10.394531 1.65625 -11.957031 2.3125 -13.28125 C 2.976562 -14.601562 3.890625 -15.628906 5.046875 -16.359375 C 6.210938 -17.085938 7.535156 -17.453125 9.015625 -17.453125 C 10.492188 -17.453125 11.804688 -17.085938 12.953125 -16.359375 C 14.109375 -15.628906 15.015625 -14.601562 15.671875 -13.28125 C 16.335938 -11.957031 16.671875 -10.394531 16.671875 -8.59375 C 16.671875 -6.800781 16.335938 -5.238281 15.671875 -3.90625 C 15.015625 -2.582031 14.109375 -1.554688 12.953125 -0.828125 C 11.804688 -0.109375 10.492188 0.25 9.015625 0.25 Z M 9.015625 -1.765625 C 10.046875 -1.765625 10.976562 -2.023438 11.8125 -2.546875 C 12.644531 -3.078125 13.304688 -3.847656 13.796875 -4.859375 C 14.296875 -5.878906 14.546875 -7.125 14.546875 -8.59375 C 14.546875 -10.070312 14.296875 -11.320312 13.796875 -12.34375 C 13.304688 -13.363281 12.644531 -14.132812 11.8125 -14.65625 C 10.976562 -15.175781 10.046875 -15.4375 9.015625 -15.4375 C 7.984375 -15.4375 7.046875 -15.171875 6.203125 -14.640625 C 5.359375 -14.117188 4.6875 -13.347656 4.1875 -12.328125 C 3.695312 -11.316406 3.453125 -10.070312 3.453125 -8.59375 C 3.453125 -7.125 3.695312 -5.878906 4.1875 -4.859375 C 4.6875 -3.847656 5.359375 -3.078125 6.203125 -2.546875 C 7.046875 -2.023438 7.984375 -1.765625 9.015625 -1.765625 Z M 9.015625 -1.765625 "/></g></g></g><g fill="#00a14f" fill-opacity="1"><g transform="translate(322.62482, 264.113827)"><g><path d="M 2 0 L 2 -17.203125 L 8 -17.203125 C 9.300781 -17.203125 10.382812 -16.976562 11.25 -16.53125 C 12.125 -16.082031 12.773438 -15.457031 13.203125 -14.65625 C 13.640625 -13.863281 13.859375 -12.953125 13.859375 -11.921875 C 13.859375 -10.878906 13.640625 -9.960938 13.203125 -9.171875 C 12.765625 -8.390625 12.109375 -7.78125 11.234375 -7.34375 C 10.367188 -6.914062 9.28125 -6.703125 7.96875 -6.703125 L 3.21875 -6.703125 L 3.21875 -8.625 L 7.90625 -8.625 C 8.789062 -8.625 9.507812 -8.753906 10.0625 -9.015625 C 10.625 -9.285156 11.035156 -9.664062 11.296875 -10.15625 C 11.566406 -10.65625 11.703125 -11.242188 11.703125 -11.921875 C 11.703125 -12.609375 11.566406 -13.203125 11.296875 -13.703125 C 11.035156 -14.210938 10.625 -14.609375 10.0625 -14.890625 C 9.507812 -15.171875 8.785156 -15.3125 7.890625 -15.3125 L 4.171875 -15.3125 L 4.171875 0 Z M 11.90625 0 L 7.75 -7.75 L 10.203125 -7.75 L 14.421875 0 Z M 11.90625 0 "/></g></g></g><g fill="#00a14f" fill-opacity="1"><g transform="translate(337.793665, 264.113827)"><g><path d="M 4.171875 -17.203125 L 4.171875 0 L 2 0 L 2 -17.203125 Z M 4.171875 -17.203125 "/></g></g></g><g fill="#00a14f" fill-opacity="1"><g transform="translate(343.962866, 264.113827)"><g><path d="M 7.546875 0.296875 C 6.285156 0.296875 5.191406 0.0859375 4.265625 -0.328125 C 3.335938 -0.742188 2.613281 -1.328125 2.09375 -2.078125 C 1.582031 -2.835938 1.300781 -3.722656 1.25 -4.734375 L 3.46875 -4.734375 C 3.507812 -4.046875 3.710938 -3.472656 4.078125 -3.015625 C 4.453125 -2.554688 4.941406 -2.210938 5.546875 -1.984375 C 6.148438 -1.765625 6.816406 -1.65625 7.546875 -1.65625 C 8.335938 -1.65625 9.039062 -1.78125 9.65625 -2.03125 C 10.28125 -2.289062 10.769531 -2.644531 11.125 -3.09375 C 11.488281 -3.550781 11.671875 -4.085938 11.671875 -4.703125 C 11.671875 -5.242188 11.519531 -5.6875 11.21875 -6.03125 C 10.925781 -6.382812 10.523438 -6.675781 10.015625 -6.90625 C 9.503906 -7.132812 8.921875 -7.335938 8.265625 -7.515625 L 6.21875 -8.078125 C 4.75 -8.484375 3.628906 -9.050781 2.859375 -9.78125 C 2.085938 -10.507812 1.703125 -11.445312 1.703125 -12.59375 C 1.703125 -13.570312 1.957031 -14.421875 2.46875 -15.140625 C 2.988281 -15.867188 3.691406 -16.4375 4.578125 -16.84375 C 5.472656 -17.25 6.484375 -17.453125 7.609375 -17.453125 C 8.753906 -17.453125 9.765625 -17.25 10.640625 -16.84375 C 11.515625 -16.4375 12.203125 -15.875 12.703125 -15.15625 C 13.203125 -14.4375 13.46875 -13.617188 13.5 -12.703125 L 11.375 -12.703125 C 11.28125 -13.597656 10.882812 -14.289062 10.1875 -14.78125 C 9.488281 -15.28125 8.609375 -15.53125 7.546875 -15.53125 C 6.804688 -15.53125 6.15625 -15.40625 5.59375 -15.15625 C 5.03125 -14.90625 4.59375 -14.566406 4.28125 -14.140625 C 3.96875 -13.722656 3.8125 -13.238281 3.8125 -12.6875 C 3.8125 -12.125 3.984375 -11.664062 4.328125 -11.3125 C 4.671875 -10.957031 5.097656 -10.671875 5.609375 -10.453125 C 6.117188 -10.234375 6.628906 -10.054688 7.140625 -9.921875 L 8.90625 -9.453125 C 9.445312 -9.304688 10.003906 -9.113281 10.578125 -8.875 C 11.148438 -8.644531 11.675781 -8.347656 12.15625 -7.984375 C 12.644531 -7.628906 13.039062 -7.179688 13.34375 -6.640625 C 13.644531 -6.097656 13.796875 -5.453125 13.796875 -4.703125 C 13.796875 -3.742188 13.546875 -2.882812 13.046875 -2.125 C 12.546875 -1.375 11.828125 -0.78125 10.890625 -0.34375 C 9.960938 0.0820312 8.847656 0.296875 7.546875 0.296875 Z M 7.546875 0.296875 "/></g></g></g><g fill="#ffffff" fill-opacity="1"><g transform="translate(359.012417, 264.113827)"><g/></g></g><g fill="#0d1117" fill-opacity="1"><g transform="translate(365.516323, 264.113827)"><g><path d="M 4.59375 0 L 0.703125 -12.75 L 2.875 -12.75 L 4.453125 -7.1875 C 4.660156 -6.394531 4.882812 -5.523438 5.125 -4.578125 C 5.375 -3.628906 5.613281 -2.582031 5.84375 -1.4375 L 5.515625 -1.4375 C 5.742188 -2.539062 5.972656 -3.566406 6.203125 -4.515625 C 6.441406 -5.472656 6.671875 -6.363281 6.890625 -7.1875 L 8.4375 -12.75 L 10.609375 -12.75 L 12.125 -7.1875 C 12.34375 -6.382812 12.566406 -5.503906 12.796875 -4.546875 C 13.035156 -3.597656 13.265625 -2.5625 13.484375 -1.4375 L 13.140625 -1.4375 C 13.378906 -2.5625 13.617188 -3.59375 13.859375 -4.53125 C 14.097656 -5.476562 14.332031 -6.363281 14.5625 -7.1875 L 16.140625 -12.75 L 18.3125 -12.75 L 14.421875 0 L 12.34375 0 L 10.703125 -5.78125 C 10.523438 -6.363281 10.359375 -6.957031 10.203125 -7.5625 C 10.046875 -8.164062 9.890625 -8.78125 9.734375 -9.40625 C 9.578125 -10.039062 9.421875 -10.679688 9.265625 -11.328125 L 9.75 -11.328125 C 9.59375 -10.691406 9.4375 -10.054688 9.28125 -9.421875 C 9.125 -8.785156 8.96875 -8.160156 8.8125 -7.546875 C 8.65625 -6.941406 8.488281 -6.351562 8.3125 -5.78125 L 6.65625 0 Z M 4.59375 0 "/></g></g></g><g fill="#0d1117" fill-opacity="1"><g transform="translate(384.532248, 264.113827)"><g><path d="M 1.75 0 L 1.75 -12.75 L 3.796875 -12.75 L 3.796875 0 Z M 2.78125 -14.921875 C 2.394531 -14.921875 2.0625 -15.054688 1.78125 -15.328125 C 1.5 -15.597656 1.359375 -15.921875 1.359375 -16.296875 C 1.359375 -16.671875 1.5 -16.988281 1.78125 -17.25 C 2.0625 -17.519531 2.394531 -17.65625 2.78125 -17.65625 C 3.164062 -17.65625 3.5 -17.519531 3.78125 -17.25 C 4.0625 -16.988281 4.203125 -16.671875 4.203125 -16.296875 C 4.203125 -15.921875 4.0625 -15.597656 3.78125 -15.328125 C 3.5 -15.054688 3.164062 -14.921875 2.78125 -14.921875 Z M 2.78125 -14.921875 "/></g></g></g><g fill="#0d1117" fill-opacity="1"><g transform="translate(390.123808, 264.113827)"><g><path d="M 6.890625 -12.75 L 6.890625 -11 L 0.21875 -11 L 0.21875 -12.75 Z M 2.203125 -15.875 L 4.265625 -15.875 L 4.265625 -3.25 C 4.265625 -2.707031 4.375 -2.3125 4.59375 -2.0625 C 4.820312 -1.8125 5.207031 -1.6875 5.75 -1.6875 C 5.882812 -1.6875 6.054688 -1.695312 6.265625 -1.71875 C 6.472656 -1.738281 6.660156 -1.765625 6.828125 -1.796875 L 7.15625 -0.0625 C 6.945312 0 6.707031 0.046875 6.4375 0.078125 C 6.175781 0.109375 5.914062 0.125 5.65625 0.125 C 4.5625 0.125 3.710938 -0.15625 3.109375 -0.71875 C 2.503906 -1.28125 2.203125 -2.070312 2.203125 -3.09375 Z M 2.203125 -15.875 "/></g></g></g><g fill="#0d1117" fill-opacity="1"><g transform="translate(397.783326, 264.113827)"><g><path d="M 3.796875 -7.59375 L 3.796875 0 L 1.75 0 L 1.75 -17.203125 L 3.796875 -17.203125 L 3.796875 -9.671875 L 3.390625 -9.671875 C 3.773438 -10.835938 4.328125 -11.671875 5.046875 -12.171875 C 5.773438 -12.679688 6.628906 -12.9375 7.609375 -12.9375 C 8.472656 -12.9375 9.234375 -12.753906 9.890625 -12.390625 C 10.554688 -12.035156 11.078125 -11.5 11.453125 -10.78125 C 11.828125 -10.0625 12.015625 -9.15625 12.015625 -8.0625 L 12.015625 0 L 9.953125 0 L 9.953125 -7.90625 C 9.953125 -8.90625 9.691406 -9.679688 9.171875 -10.234375 C 8.648438 -10.796875 7.941406 -11.078125 7.046875 -11.078125 C 6.429688 -11.078125 5.878906 -10.945312 5.390625 -10.6875 C 4.898438 -10.425781 4.507812 -10.035156 4.21875 -9.515625 C 3.9375 -9.003906 3.796875 -8.363281 3.796875 -7.59375 Z M 3.796875 -7.59375 "/></g></g></g><g fill="#0d1117" fill-opacity="1"><g transform="translate(411.542728, 264.113827)"><g/></g></g><g fill="#9945ff" fill-opacity="1"><g transform="translate(418.03976, 264.113827)"><g><path d="M 7.546875 0.296875 C 6.285156 0.296875 5.191406 0.0859375 4.265625 -0.328125 C 3.335938 -0.742188 2.613281 -1.328125 2.09375 -2.078125 C 1.582031 -2.835938 1.300781 -3.722656 1.25 -4.734375 L 3.46875 -4.734375 C 3.507812 -4.046875 3.710938 -3.472656 4.078125 -3.015625 C 4.453125 -2.554688 4.941406 -2.210938 5.546875 -1.984375 C 6.148438 -1.765625 6.816406 -1.65625 7.546875 -1.65625 C 8.335938 -1.65625 9.039062 -1.78125 9.65625 -2.03125 C 10.28125 -2.289062 10.769531 -2.644531 11.125 -3.09375 C 11.488281 -3.550781 11.671875 -4.085938 11.671875 -4.703125 C 11.671875 -5.242188 11.519531 -5.6875 11.21875 -6.03125 C 10.925781 -6.382812 10.523438 -6.675781 10.015625 -6.90625 C 9.503906 -7.132812 8.921875 -7.335938 8.265625 -7.515625 L 6.21875 -8.078125 C 4.75 -8.484375 3.628906 -9.050781 2.859375 -9.78125 C 2.085938 -10.507812 1.703125 -11.445312 1.703125 -12.59375 C 1.703125 -13.570312 1.957031 -14.421875 2.46875 -15.140625 C 2.988281 -15.867188 3.691406 -16.4375 4.578125 -16.84375 C 5.472656 -17.25 6.484375 -17.453125 7.609375 -17.453125 C 8.753906 -17.453125 9.765625 -17.25 10.640625 -16.84375 C 11.515625 -16.4375 12.203125 -15.875 12.703125 -15.15625 C 13.203125 -14.4375 13.46875 -13.617188 13.5 -12.703125 L 11.375 -12.703125 C 11.28125 -13.597656 10.882812 -14.289062 10.1875 -14.78125 C 9.488281 -15.28125 8.609375 -15.53125 7.546875 -15.53125 C 6.804688 -15.53125 6.15625 -15.40625 5.59375 -15.15625 C 5.03125 -14.90625 4.59375 -14.566406 4.28125 -14.140625 C 3.96875 -13.722656 3.8125 -13.238281 3.8125 -12.6875 C 3.8125 -12.125 3.984375 -11.664062 4.328125 -11.3125 C 4.671875 -10.957031 5.097656 -10.671875 5.609375 -10.453125 C 6.117188 -10.234375 6.628906 -10.054688 7.140625 -9.921875 L 8.90625 -9.453125 C 9.445312 -9.304688 10.003906 -9.113281 10.578125 -8.875 C 11.148438 -8.644531 11.675781 -8.347656 12.15625 -7.984375 C 12.644531 -7.628906 13.039062 -7.179688 13.34375 -6.640625 C 13.644531 -6.097656 13.796875 -5.453125 13.796875 -4.703125 C 13.796875 -3.742188 13.546875 -2.882812 13.046875 -2.125 C 12.546875 -1.375 11.828125 -0.78125 10.890625 -0.34375 C 9.960938 0.0820312 8.847656 0.296875 7.546875 0.296875 Z M 7.546875 0.296875 "/></g></g></g><g fill="#9945ff" fill-opacity="1"><g transform="translate(433.081518, 264.113827)"><g><path d="M 6.953125 0.28125 C 5.785156 0.28125 4.765625 0.00390625 3.890625 -0.546875 C 3.023438 -1.097656 2.347656 -1.867188 1.859375 -2.859375 C 1.367188 -3.859375 1.125 -5.007812 1.125 -6.3125 C 1.125 -7.632812 1.367188 -8.789062 1.859375 -9.78125 C 2.347656 -10.78125 3.023438 -11.554688 3.890625 -12.109375 C 4.765625 -12.660156 5.785156 -12.9375 6.953125 -12.9375 C 8.117188 -12.9375 9.140625 -12.660156 10.015625 -12.109375 C 10.890625 -11.554688 11.570312 -10.78125 12.0625 -9.78125 C 12.550781 -8.789062 12.796875 -7.632812 12.796875 -6.3125 C 12.796875 -5.007812 12.550781 -3.859375 12.0625 -2.859375 C 11.570312 -1.867188 10.890625 -1.097656 10.015625 -0.546875 C 9.140625 0.00390625 8.117188 0.28125 6.953125 0.28125 Z M 6.953125 -1.5625 C 7.796875 -1.5625 8.5 -1.773438 9.0625 -2.203125 C 9.625 -2.640625 10.039062 -3.21875 10.3125 -3.9375 C 10.582031 -4.65625 10.71875 -5.445312 10.71875 -6.3125 C 10.71875 -7.175781 10.582031 -7.972656 10.3125 -8.703125 C 10.039062 -9.429688 9.625 -10.007812 9.0625 -10.4375 C 8.5 -10.875 7.796875 -11.09375 6.953125 -11.09375 C 6.109375 -11.09375 5.410156 -10.875 4.859375 -10.4375 C 4.304688 -10.007812 3.890625 -9.429688 3.609375 -8.703125 C 3.335938 -7.984375 3.203125 -7.1875 3.203125 -6.3125 C 3.203125 -5.445312 3.335938 -4.65625 3.609375 -3.9375 C 3.890625 -3.21875 4.304688 -2.640625 4.859375 -2.203125 C 5.410156 -1.773438 6.109375 -1.5625 6.953125 -1.5625 Z M 6.953125 -1.5625 "/></g></g></g><g fill="#9945ff" fill-opacity="1"><g transform="translate(447.002659, 264.113827)"><g><path d="M 3.796875 -17.203125 L 3.796875 0 L 1.75 0 L 1.75 -17.203125 Z M 3.796875 -17.203125 "/></g></g></g><g fill="#9945ff" fill-opacity="1"><g transform="translate(452.548008, 264.113827)"><g><path d="M 5.375 0.28125 C 4.5625 0.28125 3.828125 0.128906 3.171875 -0.171875 C 2.515625 -0.472656 1.988281 -0.914062 1.59375 -1.5 C 1.207031 -2.082031 1.015625 -2.796875 1.015625 -3.640625 C 1.015625 -4.367188 1.15625 -4.957031 1.4375 -5.40625 C 1.726562 -5.863281 2.113281 -6.222656 2.59375 -6.484375 C 3.082031 -6.753906 3.617188 -6.953125 4.203125 -7.078125 C 4.796875 -7.210938 5.394531 -7.320312 6 -7.40625 C 6.769531 -7.5 7.390625 -7.570312 7.859375 -7.625 C 8.335938 -7.6875 8.691406 -7.78125 8.921875 -7.90625 C 9.148438 -8.03125 9.265625 -8.253906 9.265625 -8.578125 L 9.265625 -8.65625 C 9.265625 -9.164062 9.160156 -9.601562 8.953125 -9.96875 C 8.753906 -10.34375 8.453125 -10.628906 8.046875 -10.828125 C 7.648438 -11.023438 7.15625 -11.125 6.5625 -11.125 C 5.945312 -11.125 5.421875 -11.03125 4.984375 -10.84375 C 4.554688 -10.65625 4.203125 -10.410156 3.921875 -10.109375 C 3.648438 -9.816406 3.460938 -9.503906 3.359375 -9.171875 L 1.359375 -9.6875 C 1.617188 -10.46875 2.015625 -11.09375 2.546875 -11.5625 C 3.078125 -12.039062 3.6875 -12.390625 4.375 -12.609375 C 5.070312 -12.828125 5.785156 -12.9375 6.515625 -12.9375 C 7.003906 -12.9375 7.523438 -12.875 8.078125 -12.75 C 8.640625 -12.625 9.164062 -12.398438 9.65625 -12.078125 C 10.144531 -11.765625 10.539062 -11.316406 10.84375 -10.734375 C 11.15625 -10.148438 11.3125 -9.398438 11.3125 -8.484375 L 11.3125 0 L 9.28125 0 L 9.28125 -1.75 L 9.171875 -1.75 C 9.023438 -1.457031 8.789062 -1.148438 8.46875 -0.828125 C 8.15625 -0.515625 7.742188 -0.25 7.234375 -0.03125 C 6.734375 0.175781 6.113281 0.28125 5.375 0.28125 Z M 5.71875 -1.546875 C 6.5 -1.546875 7.148438 -1.691406 7.671875 -1.984375 C 8.191406 -2.285156 8.585938 -2.675781 8.859375 -3.15625 C 9.128906 -3.632812 9.265625 -4.132812 9.265625 -4.65625 L 9.265625 -6.390625 C 9.179688 -6.296875 9.003906 -6.207031 8.734375 -6.125 C 8.472656 -6.050781 8.164062 -5.984375 7.8125 -5.921875 C 7.457031 -5.859375 7.109375 -5.804688 6.765625 -5.765625 C 6.429688 -5.722656 6.144531 -5.6875 5.90625 -5.65625 C 5.40625 -5.59375 4.941406 -5.484375 4.515625 -5.328125 C 4.085938 -5.179688 3.738281 -4.96875 3.46875 -4.6875 C 3.207031 -4.40625 3.078125 -4.019531 3.078125 -3.53125 C 3.078125 -3.101562 3.191406 -2.738281 3.421875 -2.4375 C 3.648438 -2.144531 3.957031 -1.921875 4.34375 -1.765625 C 4.738281 -1.617188 5.195312 -1.546875 5.71875 -1.546875 Z M 5.71875 -1.546875 "/></g></g></g><g fill="#9945ff" fill-opacity="1"><g transform="translate(465.602683, 264.113827)"><g><path d="M 3.796875 -7.59375 L 3.796875 0 L 1.75 0 L 1.75 -12.75 L 3.71875 -12.75 L 3.734375 -9.671875 L 3.390625 -9.671875 C 3.773438 -10.835938 4.328125 -11.671875 5.046875 -12.171875 C 5.773438 -12.679688 6.628906 -12.9375 7.609375 -12.9375 C 8.472656 -12.9375 9.234375 -12.753906 9.890625 -12.390625 C 10.546875 -12.035156 11.0625 -11.5 11.4375 -10.78125 C 11.8125 -10.0625 12 -9.15625 12 -8.0625 L 12 0 L 9.953125 0 L 9.953125 -7.90625 C 9.953125 -8.90625 9.691406 -9.679688 9.171875 -10.234375 C 8.648438 -10.796875 7.941406 -11.078125 7.046875 -11.078125 C 6.429688 -11.078125 5.878906 -10.945312 5.390625 -10.6875 C 4.898438 -10.425781 4.507812 -10.035156 4.21875 -9.515625 C 3.9375 -9.003906 3.796875 -8.363281 3.796875 -7.59375 Z M 3.796875 -7.59375 "/></g></g></g><g fill="#9945ff" fill-opacity="1"><g transform="translate(479.350527, 264.113827)"><g><path d="M 5.375 0.28125 C 4.5625 0.28125 3.828125 0.128906 3.171875 -0.171875 C 2.515625 -0.472656 1.988281 -0.914062 1.59375 -1.5 C 1.207031 -2.082031 1.015625 -2.796875 1.015625 -3.640625 C 1.015625 -4.367188 1.15625 -4.957031 1.4375 -5.40625 C 1.726562 -5.863281 2.113281 -6.222656 2.59375 -6.484375 C 3.082031 -6.753906 3.617188 -6.953125 4.203125 -7.078125 C 4.796875 -7.210938 5.394531 -7.320312 6 -7.40625 C 6.769531 -7.5 7.390625 -7.570312 7.859375 -7.625 C 8.335938 -7.6875 8.691406 -7.78125 8.921875 -7.90625 C 9.148438 -8.03125 9.265625 -8.253906 9.265625 -8.578125 L 9.265625 -8.65625 C 9.265625 -9.164062 9.160156 -9.601562 8.953125 -9.96875 C 8.753906 -10.34375 8.453125 -10.628906 8.046875 -10.828125 C 7.648438 -11.023438 7.15625 -11.125 6.5625 -11.125 C 5.945312 -11.125 5.421875 -11.03125 4.984375 -10.84375 C 4.554688 -10.65625 4.203125 -10.410156 3.921875 -10.109375 C 3.648438 -9.816406 3.460938 -9.503906 3.359375 -9.171875 L 1.359375 -9.6875 C 1.617188 -10.46875 2.015625 -11.09375 2.546875 -11.5625 C 3.078125 -12.039062 3.6875 -12.390625 4.375 -12.609375 C 5.070312 -12.828125 5.785156 -12.9375 6.515625 -12.9375 C 7.003906 -12.9375 7.523438 -12.875 8.078125 -12.75 C 8.640625 -12.625 9.164062 -12.398438 9.65625 -12.078125 C 10.144531 -11.765625 10.539062 -11.316406 10.84375 -10.734375 C 11.15625 -10.148438 11.3125 -9.398438 11.3125 -8.484375 L 11.3125 0 L 9.28125 0 L 9.28125 -1.75 L 9.171875 -1.75 C 9.023438 -1.457031 8.789062 -1.148438 8.46875 -0.828125 C 8.15625 -0.515625 7.742188 -0.25 7.234375 -0.03125 C 6.734375 0.175781 6.113281 0.28125 5.375 0.28125 Z M 5.71875 -1.546875 C 6.5 -1.546875 7.148438 -1.691406 7.671875 -1.984375 C 8.191406 -2.285156 8.585938 -2.675781 8.859375 -3.15625 C 9.128906 -3.632812 9.265625 -4.132812 9.265625 -4.65625 L 9.265625 -6.390625 C 9.179688 -6.296875 9.003906 -6.207031 8.734375 -6.125 C 8.472656 -6.050781 8.164062 -5.984375 7.8125 -5.921875 C 7.457031 -5.859375 7.109375 -5.804688 6.765625 -5.765625 C 6.429688 -5.722656 6.144531 -5.6875 5.90625 -5.65625 C 5.40625 -5.59375 4.941406 -5.484375 4.515625 -5.328125 C 4.085938 -5.179688 3.738281 -4.96875 3.46875 -4.6875 C 3.207031 -4.40625 3.078125 -4.019531 3.078125 -3.53125 C 3.078125 -3.101562 3.191406 -2.738281 3.421875 -2.4375 C 3.648438 -2.144531 3.957031 -1.921875 4.34375 -1.765625 C 4.738281 -1.617188 5.195312 -1.546875 5.71875 -1.546875 Z M 5.71875 -1.546875 "/></g></g></g></svg>